<svg xmlns="http://www.w3.org/2000/svg" viewBox="0 0 101.38 100"><title>&#x8D44;&#x6E90; 52</title><path d="M37.49 0h13.13a49.53 49.53 0 0 1 35.82 14.56 47.52 47.52 0 0 1 14.94 35.31 47.76 47.76 0 0 1-15 35.44A49.33 49.33 0 0 1 50.62 100a49.12 49.12 0 0 1-35.68-14.69A47.88 47.88 0 0 1 0 49.87V0h21.24v39.11h-.11v10.76a29.74 29.74 0 0 0 8.56 21.32 27.87 27.87 0 0 0 20.93 8.93 27.88 27.88 0 0 0 20.94-8.93 29.74 29.74 0 0 0 8.56-21.32 29.28 29.28 0 0 0-8.56-21.18 28.06 28.06 0 0 0-20.94-8.81H37.49V0z" fill="#ff9832"/><path d="M51.23 64.69a14.76 14.76 0 1 0-14.76-14.76 14.75 14.75 0 0 0 14.76 14.76z" fill="#333"/></svg>